{"title":"A.Cinderella.Story.Once.Upon.a.Song.2011.DvDRip.XviD.Ac3.Feel-Fr","uid":6675667,"size":1649648284,"categoryP":"video","categoryS":"movies","magnet":"?xt=urn:btih:89833c30c3ebcdc4eab9972f644f141e5553d5e9&amp;dn=A.Cinderella.Story.Once.Upon.a.Song.2011.DvDRip.XviD.Ac3.Feel-Fr&amp;tr=udp%3A%2F%2Ftracker.openbittorrent.com%3A80&amp;tr=udp%3A%2F%2Fopen.demonii.com%3A1337&amp;tr=udp%3A%2F%2Ftracker.coppersurfer.tk%3A6969&amp;tr=udp%3A%2F%2Fexodus.desync.com%3A6969","seeders":0,"leechers":0,"uploader":".BONE.","files":8,"time":1316017506,"description":"Genre:Comedy | Family | Romance\nLanguage:English\n &lt;a href=&quot;\nhttp://www.imdb.com/title/tt1814614/&quot; rel=&quot;nofollow&quot; target=&quot;_NEW&quot;&gt;\nhttp://www.imdb.com/title/tt1814614/&lt;/a&gt;\n\nSource:DVD Thanks!\n\nFormat : AVI\nFormat/Info : Audio Video Interleave\nFile size : 1.53 GiB\nDuration : 1h 59mn\nOverall bit rate : 1 840 Kbps\n\nVideo\nID : 0\nFormat : MPEG-4 Visual\nFormat profile : Advanced Simple@L5\nFormat settings, BVOP : Yes\nFormat settings, QPel : No\nFormat settings, GMC : No warppoints\nFormat settings, Matrix : Default (H.263)\nCodec ID : XVID\nCodec ID/Hint : XviD\nDuration : 1h 59mn\nBit rate : 1 500 Kbps\nWidth : 640 pixels\nHeight : 360 pixels\nDisplay aspect ratio : 16:9\nFrame rate : 23.976 fps\nColor space : YUV\nChroma subsampling : 4:2:0\nBit depth : 8 bits\nScan type : Progressive\nBits/(Pixel*Frame) : 0.271\nStream size : 1.25 GiB (81%)\nWriting library : XviD 1.2.1 (UTC 2008-12-04)\n\nAudio\nID : 1\nFormat : AC-3\nFormat/Info : Audio Coding 3\nMode extension : CM (complete main)\nCodec ID : 2000\nDuration : 1h 28mn\nBit rate mode : Constant\nBit rate : 448 Kbps\nChannel(s) : 6 channels\nChannel positions : Front: L C R, Side: L R, LFE\nSampling rate : 48.0 KHz\nBit depth : 16 bits\nStream size : 284 MiB (18%)\nAlignment : Aligned on interleaves\nInterleave, duration : 56 ms (1.35 video frame)\nInterleave, preload duration : 512 ms\n\n\nPlot:\nCyrano De Bergerac meets Cinderella. Over-worked, harried and terrified of being put back in foster care..\n","torrent":{"xt":"urn:btih:89833c30c3ebcdc4eab9972f644f141e5553d5e9","amp;dn":"A.Cinderella.Story.Once.Upon.a.Song.2011.DvDRip.XviD.Ac3.Feel-Fr","amp;tr":["udp%3A%2F%2Ftracker.openbittorrent.com%3A80","udp%3A%2F%2Fopen.demonii.com%3A1337","udp%3A%2F%2Ftracker.coppersurfer.tk%3A6969","udp%3A%2F%2Fexodus.desync.com%3A6969"],"infoHash":"89833c30c3ebcdc4eab9972f644f141e5553d5e9","infoHashBuffer":{"type":"Buffer","data":[137,131,60,48,195,235,205,196,234,185,151,47,100,79,20,30,85,83,213,233]},"announce":[],"urlList":[]}}